<svg width="32" height="32" viewBox="0 0 32 32" fill="none" xmlns="http://www.w3.org/2000/svg">
<rect width="32" height="32" rx="4" fill="#E64533"/>
<path fill-rule="evenodd" clip-rule="evenodd" d="M15.3937 5.154C15.2166 5.23986 14.9867 5.4093 14.8829 5.53059C14.6058 5.85453 14.3444 6.42322 14.2721 6.85995C14.2372 7.07078 14.2007 7.2489 14.191 7.25564C14.1813 7.26239 13.8626 7.33868 13.4827 7.42514C9.11173 8.41984 5.59843 12.0605 4.45713 16.7779C4.27534 17.5292 4.10526 18.5929 4.10427 18.9849C4.1039 19.1298 4.0863 19.35 4.06517 19.4743L4.02676 19.7002H3.13646C2.32875 19.7002 2.23463 19.7115 2.12224 19.8208C1.99732 19.9422 1.96157 20.1562 2.04571 20.2787C2.14454 20.4226 2.38309 20.4836 2.84754 20.4836H3.33318L3.40964 20.8755C3.64161 22.0647 4.46599 23.0953 5.51497 23.5072L5.8708 23.647L15.8153 23.6631C22.7649 23.6743 25.8573 23.6595 26.0833 23.614C26.8754 23.4544 27.7295 22.8113 28.1605 22.0502C28.4011 21.6251 28.641 20.9331 28.641 20.6638V20.4952L29.2347 20.4743C29.7359 20.4567 29.8421 20.4352 29.9163 20.3365C30.0308 20.184 30.0277 20.0008 29.9077 19.8342C29.8154 19.706 29.7717 19.7002 28.8909 19.7002H27.9706L27.9291 19.173C27.5759 14.6825 25.3157 10.8498 21.7635 8.71786C20.7921 8.13489 19.2616 7.54156 18.2245 7.34603L17.8144 7.26872L17.7405 6.86627C17.595 6.07452 17.1648 5.42346 16.6093 5.1543C16.185 4.94865 15.8176 4.94859 15.3937 5.154ZM16.3513 5.89743C16.5551 6.0183 16.8905 6.60995 16.9514 6.95624L16.9833 7.137H16.0066H15.03L15.0855 6.8967C15.1785 6.49414 15.3495 6.18274 15.5903 5.97709C15.8553 5.75083 16.0667 5.72871 16.3513 5.89743ZM17.321 7.97919C22.1838 8.60862 26.1088 12.6547 26.967 17.9227C27.0317 18.3204 27.1037 18.8831 27.1267 19.173L27.1687 19.7002H16.0033H4.83787L4.87814 19.2333C5.04308 17.3189 5.4325 15.8757 6.20731 14.3074C7.43541 11.8216 9.22549 10.022 11.5711 8.91484C12.6699 8.39622 13.8955 8.04577 15.0099 7.93171C15.5503 7.87634 16.7109 7.9002 17.321 7.97919ZM10.9102 11.0181C9.04383 12.2334 7.77396 14.0036 7.21062 16.1753C7.09271 16.6299 6.9551 17.5132 6.9551 17.8157C6.9551 17.9928 7.16291 18.1939 7.346 18.1939C7.64217 18.1939 7.70915 18.0738 7.80184 17.3767C8.12676 14.9331 9.33101 12.9985 11.3542 11.6698C11.6098 11.5019 11.8395 11.3353 11.8645 11.2995C11.9484 11.1794 11.913 10.9226 11.7986 10.8219C11.6113 10.6571 11.3894 10.7061 10.9102 11.0181ZM27.8193 20.7095C27.7254 21.36 27.2164 22.1652 26.6779 22.5153C26.0522 22.922 26.8492 22.8938 15.9958 22.8938C6.17255 22.8938 6.15365 22.8935 5.80903 22.7682C5.38504 22.6139 4.80094 22.1053 4.54598 21.6685C4.36369 21.3561 4.16691 20.7979 4.16691 20.5931C4.16691 20.4876 4.60224 20.4836 16.0094 20.4836H27.8518L27.8193 20.7095Z" fill="white"/>
</svg>
