<svg width="16" height="24" viewBox="0 0 16 24" fill="none" xmlns="http://www.w3.org/2000/svg">
<path fill-rule="evenodd" clip-rule="evenodd" d="M4.63361 0.0587668C3.85197 0.254329 3.26074 0.867361 3.08294 1.66649C2.76133 3.11221 4.13144 4.45039 5.58916 4.11435C6.26608 3.9583 6.88573 3.38221 7.11138 2.69919C7.1358 2.62531 7.21821 2.61716 7.93915 2.61716C8.84496 2.61716 8.97715 2.582 9.09045 2.31088C9.17529 2.10772 9.17417 2.0346 9.08313 1.84269C8.95821 1.57949 8.80306 1.53903 7.91801 1.53903C7.21718 1.53903 7.13576 1.53074 7.11138 1.457C6.76901 0.420595 5.66885 -0.200265 4.63361 0.0587668ZM2.80549 4.81738C2.3853 4.92013 1.96085 5.30188 1.82214 5.70177C1.76683 5.86119 1.66778 6.93608 1.4627 9.60154L1.17958 13.2812L1.5191 15.4686L1.85861 17.6559L0.928376 20.1092C0.0631098 22.391 -0.00181238 22.5838 -0.000968628 22.8672C0.000906374 23.4659 0.397235 23.906 0.998689 23.9772C1.43706 24.0292 1.87328 23.7978 2.08661 23.4001C2.15402 23.2746 2.64391 22.0175 3.17528 20.6066C3.98388 18.4596 4.14147 18.0009 4.1418 17.7941C4.14199 17.6581 4.00085 16.6456 3.82821 15.544C3.65552 14.4425 3.52783 13.5276 3.54443 13.5111C3.56102 13.4945 3.69616 13.4992 3.84471 13.5217L4.11485 13.5625L5.01625 15.5556L5.91766 17.5487L6.55385 20.3478C6.90377 21.8873 7.21221 23.2052 7.23926 23.2763C7.32026 23.4893 7.50682 23.7014 7.72676 23.8302C8.30355 24.1682 9.07085 23.9114 9.33363 23.2925C9.47159 22.9674 9.42776 22.7013 8.74409 19.7145L8.08146 16.8198L7.27877 15.0426L6.47608 13.2655L6.51982 12.7577C6.54387 12.4784 6.55858 12.2433 6.55254 12.2352C6.54644 12.227 6.18433 12.1291 5.74779 12.0175C4.85275 11.7887 4.64655 11.6988 4.32283 11.396C3.91394 11.0135 3.88985 10.9247 3.67235 8.99872C3.5665 8.06127 3.48705 7.28718 3.49577 7.27846C3.50449 7.26969 3.77439 8.00244 4.09549 8.90675C4.41663 9.81102 4.71569 10.6107 4.76013 10.6837C4.93183 10.9661 5.10471 11.0276 7.18001 11.5447C9.35262 12.0861 9.36354 12.0874 9.73662 11.8508C9.9987 11.6846 10.1414 11.4019 10.1414 11.049C10.1414 10.7212 9.95365 10.4011 9.67924 10.2611C9.57706 10.209 8.76762 9.98483 7.88051 9.76302L6.26763 9.35966L5.74647 7.8996C5.45988 7.09654 5.23029 6.43452 5.23638 6.42847C5.24243 6.42243 5.60257 6.91307 6.03668 7.51878C6.47079 8.1245 6.83801 8.60807 6.85273 8.59339C6.88512 8.56096 7.04168 6.82386 7.04519 6.45772C7.04941 6.01658 6.93513 5.73144 6.63335 5.42999C6.45049 5.24732 6.2951 5.14011 6.13362 5.08513C5.98441 5.03436 5.4153 4.96325 4.56785 4.88938C3.16863 4.7675 3.03232 4.76192 2.80549 4.81738ZM8.85237 5.97894C8.70326 6.01518 8.46106 6.21814 8.37218 6.38132C8.30182 6.5105 8.28837 6.70058 8.27449 7.75789C8.25945 8.90966 8.26371 8.98729 8.34448 9.02858C8.39177 9.05277 8.71526 9.14155 9.06331 9.22583C9.89238 9.42665 10.2122 9.57838 10.5098 9.91236C11.3681 10.8753 10.9482 12.3722 9.71468 12.7469C9.35299 12.8567 9.03959 12.8501 8.55954 12.7224C8.42426 12.6864 8.30304 12.674 8.29024 12.6947C8.24248 12.772 8.33032 13.1754 8.42576 13.317C8.48009 13.3977 8.5983 13.507 8.68845 13.5599C8.8496 13.6546 8.90782 13.6562 12.1571 13.6562H15.4617L15.6342 13.549C15.7355 13.486 15.8467 13.3589 15.9037 13.2412C15.999 13.0444 16.0008 12.9817 16.0008 9.81247C16.0008 6.64321 15.999 6.58058 15.9037 6.38371C15.8467 6.266 15.7355 6.13893 15.6342 6.07597C15.4678 5.97252 15.4244 5.96872 14.4071 5.96872H13.3524L13.34 7.62997L13.3277 9.29122L13.1407 9.10865L12.9537 8.92602L12.7526 9.12336L12.5515 9.32071L12.3682 9.13302C12.2674 9.02975 12.1637 8.94529 12.1378 8.94529C12.1119 8.94529 12.0107 9.02338 11.9129 9.11886L11.7352 9.29244L11.5574 9.11886C11.4597 9.02338 11.3604 8.94529 11.3367 8.94529C11.3131 8.94529 11.2138 9.02338 11.1161 9.11886L10.9383 9.29244V7.61886V5.94528L9.94221 5.95072C9.39438 5.95372 8.90393 5.96643 8.85237 5.97894Z" fill="#747474"/>
</svg>
