<svg width="19" height="17" viewBox="0 0 19 17" fill="none" xmlns="http://www.w3.org/2000/svg">
<path fill-rule="evenodd" clip-rule="evenodd" d="M6.61308 0.569112C7.44479 0.759274 8.08351 1.37016 8.27284 2.15655C8.35956 2.51676 8.36012 2.73878 8.27504 3.09037C8.11098 3.76842 7.55499 4.45332 6.58009 5.17826C6.11312 5.52553 6.02072 5.53715 5.69011 5.29013C4.71868 4.56438 4.15486 3.93013 3.90807 3.28554C3.78746 2.97057 3.78816 2.28353 3.90943 1.97181C4.14155 1.37496 4.53563 0.953132 5.07905 0.719698C5.62154 0.486716 6.0631 0.443363 6.61308 0.569112ZM5.73891 1.62166C4.91419 1.83715 4.64705 2.75122 5.25352 3.28238C5.92126 3.86719 7.07246 3.52103 7.20151 2.69662C7.27093 2.25311 6.91594 1.75673 6.43726 1.6279C6.14447 1.54911 6.02077 1.54801 5.73891 1.62166ZM10.2975 3.45431C10.4874 3.50194 10.7541 3.77355 10.8519 4.01905C10.8935 4.12366 10.9403 4.34728 10.9557 4.51593C10.9777 4.75659 11.0049 4.83849 11.0817 4.89638C11.3085 5.06725 11.326 5.06437 11.476 4.83164C11.6504 4.56097 12.0148 4.26944 12.3659 4.11972C12.6115 4.01499 12.6854 4.00477 13.2942 3.99097C13.8948 3.97738 13.9736 3.98399 14.1501 4.06286C14.6437 4.2834 14.976 5.04721 14.8586 5.69115C14.7749 6.14993 14.4427 6.62221 14.0859 6.78976C13.9255 6.86505 13.8288 6.87679 13.4179 6.87104C13.1537 6.86735 12.9374 6.87741 12.9374 6.89342C12.9374 6.90947 13.1032 7.27276 13.3059 7.70075C13.5084 8.12874 13.911 9.01464 14.2004 9.66946C14.5078 10.3652 14.766 10.8899 14.8215 10.9319C14.8984 10.99 15.0075 11.0038 15.3918 11.0044C16.1677 11.0056 16.8223 11.1694 17.44 11.5168C17.7888 11.713 18.225 12.0705 18.3704 12.2793C18.5582 12.5492 18.4524 12.9364 18.1543 13.0701C18.0823 13.1024 17.9126 13.142 17.7773 13.1581C17.6419 13.1742 17.5312 13.1954 17.5312 13.2053C17.5312 13.2152 17.5651 13.2919 17.6065 13.3759C17.8078 13.7837 17.8736 14.3957 17.7618 14.8206C17.6107 15.3949 17.0743 15.9814 16.4496 16.2552C15.9837 16.4594 15.6473 16.5209 15.1405 16.4941C14.3184 16.4507 13.6369 16.0944 13.1644 15.461C12.9034 15.1111 12.7906 14.7604 12.7893 14.2954C12.7884 13.9546 12.7797 13.9158 12.7105 13.9419C12.358 14.0745 12.1601 14.0828 9.34126 14.0828H6.51554L6.51516 14.2367C6.5124 15.4407 5.47004 16.4247 4.12491 16.4931C3.37064 16.5315 2.73057 16.3186 2.19821 15.8523C1.7191 15.4328 1.45303 14.895 1.45303 14.3464V14.0935L0.958784 14.0743C0.414612 14.0531 0.30544 14.0122 0.105377 13.7548C0.0147681 13.6382 -9.13341e-05 13.5655 -9.13341e-05 13.2396C-9.13341e-05 12.8009 0.0969403 12.305 0.260394 11.9081C0.396987 11.5765 0.398112 11.5412 0.281159 11.25C0.10744 10.8175 0.183471 10.4267 0.511925 10.0635C0.837237 9.70373 1.49977 9.55393 2.00977 9.7248L2.26186 9.80924L2.49244 9.7069C2.61929 9.65061 2.73493 9.57749 2.74936 9.54449C2.76385 9.51144 2.73038 9.39998 2.67497 9.29677C2.47514 8.92445 2.46493 8.56071 2.64582 8.25904C2.82404 7.96181 3.30966 7.69303 3.73824 7.6544C3.86068 7.64335 5.06143 7.66844 6.40655 7.71011L8.85226 7.78589L9.07721 7.90766C9.4186 8.09253 9.58182 8.35223 9.60179 8.74254C9.61646 9.02938 9.6054 9.07446 9.4599 9.3205C9.33526 9.53131 9.24095 9.62614 9.01074 9.77209C8.68159 9.98077 8.49723 10.2489 8.36152 10.7163C8.13366 11.501 8.35463 12.1102 8.96335 12.3758C9.20232 12.4801 9.22112 12.4817 10.2589 12.4817C11.2985 12.4817 11.3146 12.4803 11.5126 12.3787C11.6674 12.2993 11.7457 12.2173 11.8557 12.0195C12.0991 11.5821 12.1624 11.297 12.1589 10.6548C12.1554 10.0198 12.0835 9.68772 11.7192 8.62258C11.3713 7.60571 11.1261 6.30737 11.1842 5.78984C11.204 5.61368 11.1959 5.59886 11.0098 5.47048L10.8146 5.33586L10.7342 5.45172C10.6899 5.51539 10.588 5.61598 10.5076 5.67522C9.77288 6.21668 8.96401 5.14706 9.32377 4.1097C9.43721 3.78258 9.67829 3.50592 9.88482 3.46593C9.95242 3.45283 10.0394 3.43645 10.078 3.42956C10.1167 3.42262 10.2155 3.43379 10.2975 3.45431ZM9.91651 4.10675C9.83818 4.22354 9.82056 4.3192 9.82196 4.6198C9.8237 4.98846 9.88449 5.17354 10.0414 5.28758C10.259 5.44577 10.4871 4.7623 10.3626 4.32491C10.2482 3.92315 10.0912 3.84634 9.91651 4.10675ZM13.8219 4.83611C13.6321 5.25716 13.7045 6.26196 13.9245 6.26196C14.0304 6.26196 14.2489 5.90352 14.3056 5.63663C14.3499 5.42774 14.3459 5.33935 14.2815 5.11093C14.2002 4.82219 14.0352 4.54274 13.9677 4.57928C13.9458 4.59114 13.8802 4.70671 13.8219 4.83611ZM3.48868 8.23149C3.21666 8.35022 3.09366 8.50828 3.09366 8.73913C3.09366 8.93085 3.15118 9.08177 3.2956 9.26889L3.39835 9.40203L6.04974 9.40232L8.70113 9.4026L8.82409 9.2897C9.13023 9.00869 9.12657 8.52983 8.81691 8.34636C8.71004 8.28306 8.44154 8.26623 6.60929 8.20797C3.61116 8.11268 3.76355 8.11153 3.48868 8.23149ZM1.15196 10.2402C0.910221 10.3643 0.749816 10.6058 0.750191 10.8451L0.750518 11.0242L0.946081 10.819C1.05366 10.7061 1.26933 10.5075 1.42538 10.3776L1.70916 10.1416H1.52663C1.41849 10.1416 1.26577 10.1818 1.15196 10.2402ZM14.8414 13.6747C14.4616 13.9026 14.347 14.3692 14.5915 14.6927C14.8401 15.0217 15.3407 15.1246 15.7274 14.9261C16.2001 14.6835 16.2901 14.174 15.9246 13.8094C15.8424 13.7274 15.7114 13.635 15.6336 13.604C15.4249 13.521 15.0403 13.5554 14.8414 13.6747ZM3.14054 14.2927C3.14054 14.7038 3.45333 14.9904 3.93005 15.0161C4.14169 15.0275 4.23282 15.0113 4.38132 14.9357C4.69257 14.7774 4.88279 14.4437 4.80886 14.1857L4.77938 14.0828H3.95996H3.14054V14.2927Z" fill="#646464"/>
</svg>
